<mxfile host="app.diagrams.net" modified="2021-06-10T16:19:19.452Z" agent="5.0 (Windows)" etag="krOz3_1NAtHRv8MFYSPa" version="14.7.6" type="github" pages="2">
  <diagram name="Page-1" id="74e2e168-ea6b-b213-b513-2b3c1d86103e">
    <mxGraphModel dx="1422" dy="790" grid="1" gridSize="10" guides="1" tooltips="1" connect="1" arrows="1" fold="1" page="1" pageScale="1" pageWidth="1654" pageHeight="1169" background="none" math="0" shadow="0">
      <root>
        <mxCell id="0" />
        <mxCell id="1" parent="0" />
        <mxCell id="77e6c97f196da883-1" value="&lt;font style=&quot;font-size: 14px&quot;&gt;&lt;font style=&quot;font-size: 14px&quot;&gt;Natural Features Topics&lt;/font&gt;&lt;br&gt;&lt;/font&gt;" style="swimlane;html=1;childLayout=stackLayout;startSize=30;rounded=0;shadow=0;labelBackgroundColor=none;strokeWidth=1;fontFamily=Verdana;fontSize=8;align=center;" parent="1" vertex="1">
          <mxGeometry x="70" y="30" width="1570" height="770" as="geometry" />
        </mxCell>
        <mxCell id="77e6c97f196da883-2" value="Introduction" style="swimlane;html=1;startSize=20;" parent="77e6c97f196da883-1" vertex="1">
          <mxGeometry y="30" width="240" height="740" as="geometry" />
        </mxCell>
        <mxCell id="DaP6Y3IEQTladzm9sXex-2" value="ANT Lab / Server Overview" style="rounded=1;whiteSpace=wrap;html=1;" vertex="1" parent="77e6c97f196da883-2">
          <mxGeometry x="20" y="30" width="200" height="50" as="geometry" />
        </mxCell>
        <mxCell id="DaP6Y3IEQTladzm9sXex-3" value="Vehicle Settings" style="rounded=1;whiteSpace=wrap;html=1;" vertex="1" parent="77e6c97f196da883-2">
          <mxGeometry x="20" y="100" width="200" height="50" as="geometry" />
        </mxCell>
        <mxCell id="DaP6Y3IEQTladzm9sXex-4" value="Actions / Node " style="rounded=1;whiteSpace=wrap;html=1;" vertex="1" parent="77e6c97f196da883-2">
          <mxGeometry x="20" y="170" width="200" height="50" as="geometry" />
        </mxCell>
        <mxCell id="DaP6Y3IEQTladzm9sXex-5" value="IO Overview / Modbus" style="rounded=1;whiteSpace=wrap;html=1;" vertex="1" parent="77e6c97f196da883-2">
          <mxGeometry x="20" y="240" width="200" height="50" as="geometry" />
        </mxCell>
        <mxCell id="DaP6Y3IEQTladzm9sXex-6" value="Calibrating" style="rounded=1;whiteSpace=wrap;html=1;" vertex="1" parent="77e6c97f196da883-2">
          <mxGeometry x="20" y="310" width="200" height="50" as="geometry" />
        </mxCell>
        <mxCell id="DaP6Y3IEQTladzm9sXex-7" value="Mapping" style="rounded=1;whiteSpace=wrap;html=1;" vertex="1" parent="77e6c97f196da883-2">
          <mxGeometry x="20" y="380" width="200" height="50" as="geometry" />
        </mxCell>
        <mxCell id="77e6c97f196da883-3" value="Basics - Loops / Routing" style="swimlane;html=1;startSize=20;" parent="77e6c97f196da883-1" vertex="1">
          <mxGeometry x="240" y="30" width="260" height="740" as="geometry" />
        </mxCell>
        <mxCell id="DaP6Y3IEQTladzm9sXex-1" value="&lt;font style=&quot;font-size: 14px&quot;&gt;Loops&lt;/font&gt;" style="rounded=1;whiteSpace=wrap;html=1;" vertex="1" parent="77e6c97f196da883-3">
          <mxGeometry x="30" y="30" width="200" height="50" as="geometry" />
        </mxCell>
        <mxCell id="DaP6Y3IEQTladzm9sXex-22" value="Insertion Points" style="rounded=1;whiteSpace=wrap;html=1;" vertex="1" parent="77e6c97f196da883-3">
          <mxGeometry x="30" y="100" width="200" height="50" as="geometry" />
        </mxCell>
        <mxCell id="DaP6Y3IEQTladzm9sXex-23" value="Node to Node Missions" style="rounded=1;whiteSpace=wrap;html=1;" vertex="1" parent="77e6c97f196da883-3">
          <mxGeometry x="30" y="170" width="200" height="50" as="geometry" />
        </mxCell>
        <mxCell id="DaP6Y3IEQTladzm9sXex-24" value="Docking Mode" style="rounded=1;whiteSpace=wrap;html=1;" vertex="1" parent="77e6c97f196da883-3">
          <mxGeometry x="30" y="240" width="200" height="50" as="geometry" />
        </mxCell>
        <mxCell id="DaP6Y3IEQTladzm9sXex-25" value="Docking Mode" style="rounded=1;whiteSpace=wrap;html=1;" vertex="1" parent="77e6c97f196da883-3">
          <mxGeometry x="30" y="310" width="200" height="50" as="geometry" />
        </mxCell>
        <mxCell id="DaP6Y3IEQTladzm9sXex-26" value="Telnet Commands" style="rounded=1;whiteSpace=wrap;html=1;" vertex="1" parent="77e6c97f196da883-3">
          <mxGeometry x="30" y="380" width="200" height="50" as="geometry" />
        </mxCell>
        <mxCell id="DaP6Y3IEQTladzm9sXex-43" value="Acksys Setup" style="rounded=1;whiteSpace=wrap;html=1;" vertex="1" parent="77e6c97f196da883-3">
          <mxGeometry x="30" y="450" width="200" height="50" as="geometry" />
        </mxCell>
        <mxCell id="77e6c97f196da883-4" value="Intermediate - IO / Liaison" style="swimlane;html=1;startSize=20;" parent="77e6c97f196da883-1" vertex="1">
          <mxGeometry x="500" y="30" width="250" height="740" as="geometry" />
        </mxCell>
        <mxCell id="DaP6Y3IEQTladzm9sXex-27" value="Start vehicle on pushbutton (local/remote)" style="rounded=1;whiteSpace=wrap;html=1;" vertex="1" parent="77e6c97f196da883-4">
          <mxGeometry x="25" y="30" width="200" height="50" as="geometry" />
        </mxCell>
        <mxCell id="DaP6Y3IEQTladzm9sXex-28" value="Lights (modbus)" style="rounded=1;whiteSpace=wrap;html=1;" vertex="1" parent="77e6c97f196da883-4">
          <mxGeometry x="25" y="100" width="200" height="50" as="geometry" />
        </mxCell>
        <mxCell id="DaP6Y3IEQTladzm9sXex-29" value="Liaison " style="rounded=1;whiteSpace=wrap;html=1;" vertex="1" parent="77e6c97f196da883-4">
          <mxGeometry x="25" y="170" width="200" height="50" as="geometry" />
        </mxCell>
        <mxCell id="DaP6Y3IEQTladzm9sXex-30" value="Modifying Hulls / Views" style="rounded=1;whiteSpace=wrap;html=1;" vertex="1" parent="77e6c97f196da883-4">
          <mxGeometry x="25" y="240" width="200" height="50" as="geometry" />
        </mxCell>
        <mxCell id="DaP6Y3IEQTladzm9sXex-33" value="Map Switches" style="rounded=1;whiteSpace=wrap;html=1;" vertex="1" parent="77e6c97f196da883-4">
          <mxGeometry x="25" y="310" width="200" height="50" as="geometry" />
        </mxCell>
        <mxCell id="DaP6Y3IEQTladzm9sXex-44" value="" style="rounded=1;whiteSpace=wrap;html=1;" vertex="1" parent="77e6c97f196da883-4">
          <mxGeometry x="25" y="380" width="200" height="50" as="geometry" />
        </mxCell>
        <mxCell id="77e6c97f196da883-5" value="Advanced - Devices, Routing" style="swimlane;html=1;startSize=20;" parent="77e6c97f196da883-1" vertex="1">
          <mxGeometry x="750" y="30" width="270" height="740" as="geometry" />
        </mxCell>
        <mxCell id="DaP6Y3IEQTladzm9sXex-31" value="Arrival Selectors / Via nodes" style="rounded=1;whiteSpace=wrap;html=1;" vertex="1" parent="77e6c97f196da883-5">
          <mxGeometry x="30" y="30" width="200" height="50" as="geometry" />
        </mxCell>
        <mxCell id="DaP6Y3IEQTladzm9sXex-32" value="OPCUA" style="rounded=1;whiteSpace=wrap;html=1;" vertex="1" parent="77e6c97f196da883-5">
          <mxGeometry x="30" y="100" width="200" height="50" as="geometry" />
        </mxCell>
        <mxCell id="DaP6Y3IEQTladzm9sXex-34" value="Calibration/Mapping Theory" style="rounded=1;whiteSpace=wrap;html=1;" vertex="1" parent="77e6c97f196da883-5">
          <mxGeometry x="30" y="170" width="200" height="50" as="geometry" />
        </mxCell>
        <mxCell id="DaP6Y3IEQTladzm9sXex-35" value="Calibration/Mapping Theory" style="rounded=1;whiteSpace=wrap;html=1;" vertex="1" parent="77e6c97f196da883-5">
          <mxGeometry x="30" y="240" width="200" height="50" as="geometry" />
        </mxCell>
        <mxCell id="77e6c97f196da883-6" value="API / Dynamic Node Types" style="swimlane;html=1;startSize=20;" parent="77e6c97f196da883-1" vertex="1">
          <mxGeometry x="1020" y="30" width="250" height="740" as="geometry" />
        </mxCell>
        <mxCell id="DaP6Y3IEQTladzm9sXex-36" value="Basic API Structure" style="rounded=1;whiteSpace=wrap;html=1;" vertex="1" parent="77e6c97f196da883-6">
          <mxGeometry x="20" y="30" width="200" height="50" as="geometry" />
        </mxCell>
        <mxCell id="DaP6Y3IEQTladzm9sXex-37" value="Using L2 to program Dyn Node Types" style="rounded=1;whiteSpace=wrap;html=1;" vertex="1" parent="77e6c97f196da883-6">
          <mxGeometry x="20" y="170" width="200" height="50" as="geometry" />
        </mxCell>
        <mxCell id="DaP6Y3IEQTladzm9sXex-38" value="Dynamic Node Type Use Cases" style="rounded=1;whiteSpace=wrap;html=1;" vertex="1" parent="77e6c97f196da883-6">
          <mxGeometry x="20" y="100" width="200" height="50" as="geometry" />
        </mxCell>
        <mxCell id="DaP6Y3IEQTladzm9sXex-39" value="Creating an HMI" style="rounded=1;whiteSpace=wrap;html=1;" vertex="1" parent="77e6c97f196da883-6">
          <mxGeometry x="20" y="240" width="200" height="50" as="geometry" />
        </mxCell>
        <mxCell id="77e6c97f196da883-7" value="Troubleshooting" style="swimlane;html=1;startSize=20;" parent="77e6c97f196da883-1" vertex="1">
          <mxGeometry x="1270" y="30" width="270" height="740" as="geometry" />
        </mxCell>
        <mxCell id="DaP6Y3IEQTladzm9sXex-40" value="Telnet" style="rounded=1;whiteSpace=wrap;html=1;" vertex="1" parent="77e6c97f196da883-7">
          <mxGeometry x="30" y="30" width="200" height="50" as="geometry" />
        </mxCell>
        <mxCell id="DaP6Y3IEQTladzm9sXex-41" value="Recording / Report" style="rounded=1;whiteSpace=wrap;html=1;" vertex="1" parent="77e6c97f196da883-7">
          <mxGeometry x="30" y="100" width="200" height="50" as="geometry" />
        </mxCell>
        <mxCell id="DaP6Y3IEQTladzm9sXex-42" value="Networking" style="rounded=1;whiteSpace=wrap;html=1;" vertex="1" parent="77e6c97f196da883-7">
          <mxGeometry x="30" y="170" width="200" height="50" as="geometry" />
        </mxCell>
      </root>
    </mxGraphModel>
  </diagram>
  <diagram name="Copy of Page-1" id="BS8bpjZylZoCPS49E0XL">
    <mxGraphModel dx="1422" dy="790" grid="1" gridSize="10" guides="1" tooltips="1" connect="1" arrows="1" fold="1" page="1" pageScale="1" pageWidth="1100" pageHeight="850" background="none" math="0" shadow="0">
      <root>
        <mxCell id="oa9NX1KwK3xgsOEoLZF8-0" />
        <mxCell id="oa9NX1KwK3xgsOEoLZF8-1" parent="oa9NX1KwK3xgsOEoLZF8-0" />
        <mxCell id="oa9NX1KwK3xgsOEoLZF8-2" value="Pool" style="swimlane;html=1;childLayout=stackLayout;startSize=20;rounded=0;shadow=0;labelBackgroundColor=none;strokeWidth=1;fontFamily=Verdana;fontSize=8;align=center;" vertex="1" parent="oa9NX1KwK3xgsOEoLZF8-1">
          <mxGeometry x="70" y="40" width="960" height="750" as="geometry" />
        </mxCell>
        <mxCell id="oa9NX1KwK3xgsOEoLZF8-3" value="Basics" style="swimlane;html=1;startSize=20;" vertex="1" parent="oa9NX1KwK3xgsOEoLZF8-2">
          <mxGeometry y="20" width="160" height="730" as="geometry" />
        </mxCell>
        <mxCell id="oa9NX1KwK3xgsOEoLZF8-4" value="Lane 2" style="swimlane;html=1;startSize=20;" vertex="1" parent="oa9NX1KwK3xgsOEoLZF8-2">
          <mxGeometry x="160" y="20" width="160" height="730" as="geometry" />
        </mxCell>
        <mxCell id="oa9NX1KwK3xgsOEoLZF8-5" value="Lane 3" style="swimlane;html=1;startSize=20;" vertex="1" parent="oa9NX1KwK3xgsOEoLZF8-2">
          <mxGeometry x="320" y="20" width="160" height="730" as="geometry" />
        </mxCell>
        <mxCell id="oa9NX1KwK3xgsOEoLZF8-6" value="Lane 4" style="swimlane;html=1;startSize=20;" vertex="1" parent="oa9NX1KwK3xgsOEoLZF8-2">
          <mxGeometry x="480" y="20" width="160" height="730" as="geometry" />
        </mxCell>
        <mxCell id="oa9NX1KwK3xgsOEoLZF8-7" value="Lane 5" style="swimlane;html=1;startSize=20;" vertex="1" parent="oa9NX1KwK3xgsOEoLZF8-2">
          <mxGeometry x="640" y="20" width="160" height="730" as="geometry" />
        </mxCell>
        <mxCell id="oa9NX1KwK3xgsOEoLZF8-8" value="Lane 6" style="swimlane;html=1;startSize=20;" vertex="1" parent="oa9NX1KwK3xgsOEoLZF8-2">
          <mxGeometry x="800" y="20" width="160" height="730" as="geometry" />
        </mxCell>
      </root>
    </mxGraphModel>
  </diagram>
</mxfile>
